<?xml version="1.0" encoding="UTF-8" standalone="no"?>
<!DOCTYPE svg PUBLIC "-//W3C//DTD SVG 1.1//EN"
 "http://www.w3.org/Graphics/SVG/1.1/DTD/svg11.dtd">
<!-- Generated by graphviz version 2.40.1 (20161225.0304)
 -->
<!-- Title: dependencies Pages: 1 -->
<svg width="3705pt" height="284pt"
 viewBox="0.00 0.00 3705.00 284.00" xmlns="http://www.w3.org/2000/svg" xmlns:xlink="http://www.w3.org/1999/xlink">
<g id="graph0" class="graph" transform="scale(1 1) rotate(0) translate(4 280)">
<title>dependencies</title>
<polygon fill="#ffffff" stroke="transparent" points="-4,4 -4,-280 3701,-280 3701,4 -4,4"/>
<text text-anchor="start" x="1827.5091" y="-42.4" font-family="sans-serif" font-weight="bold" font-size="14.00" fill="#000000">Legend</text>
<polygon fill="#ffffb3" stroke="transparent" points="1614.5,-10 1614.5,-30 1634.5,-30 1634.5,-10 1614.5,-10"/>
<text text-anchor="start" x="1638.129" y="-15.4" font-family="sans-serif" font-size="14.00" fill="#000000"> &#160;Declarations</text>
<polygon fill="#8dd3c7" stroke="transparent" points="1727.5,-10 1727.5,-30 1747.5,-30 1747.5,-10 1727.5,-10"/>
<text text-anchor="start" x="1751.2251" y="-15.4" font-family="sans-serif" font-size="14.00" fill="#000000"> &#160;Module</text>
<polygon fill="#80b1d3" stroke="transparent" points="1813.5,-10 1813.5,-30 1833.5,-30 1833.5,-10 1813.5,-10"/>
<text text-anchor="start" x="1837.2812" y="-15.4" font-family="sans-serif" font-size="14.00" fill="#000000"> &#160;Bootstrap</text>
<polygon fill="#fdb462" stroke="transparent" points="1910.5,-10 1910.5,-30 1930.5,-30 1930.5,-10 1910.5,-10"/>
<text text-anchor="start" x="1934.1732" y="-15.4" font-family="sans-serif" font-size="14.00" fill="#000000"> &#160;Providers</text>
<polygon fill="#fb8072" stroke="transparent" points="2006.5,-10 2006.5,-30 2026.5,-30 2026.5,-10 2006.5,-10"/>
<text text-anchor="start" x="2030.2258" y="-15.4" font-family="sans-serif" font-size="14.00" fill="#000000"> &#160;Exports</text>
<g id="clust1" class="cluster">
<title>cluster_AppModule</title>
<polygon fill="none" stroke="#000000" stroke-dasharray="1,5" points="8,-70 8,-268 3689,-268 3689,-70 8,-70"/>
</g>
<g id="clust2" class="cluster">
<title>cluster_AppModule_declarations</title>
<polygon fill="none" stroke="#000000" points="94,-78 94,-130 3681,-130 3681,-78 94,-78"/>
</g>
<g id="clust25" class="cluster">
<title>cluster_AppModule_imports</title>
<polygon fill="none" stroke="#000000" points="16,-78 16,-130 86,-130 86,-78 16,-78"/>
</g>
<g id="clust27" class="cluster">
<title>cluster_AppModule_bootstrap</title>
<polygon fill="none" stroke="#000000" points="1903,-208 1903,-260 2027,-260 2027,-208 1903,-208"/>
</g>
<!-- AppComponent -->
<g id="node1" class="node">
<title>AppComponent</title>
<polygon fill="#ffffb3" stroke="#000000" points="3672.9399,-122 3567.0601,-122 3567.0601,-86 3672.9399,-86 3672.9399,-122"/>
<text text-anchor="middle" x="3620" y="-99.8" font-family="Times,serif" font-size="14.00" fill="#000000">AppComponent</text>
</g>
<!-- AppModule -->
<g id="node23" class="node">
<title>AppModule</title>
<polygon fill="#8dd3c7" stroke="#000000" points="2006.6571,-187 2003.6571,-191 1982.6571,-191 1979.6571,-187 1923.3429,-187 1923.3429,-151 2006.6571,-151 2006.6571,-187"/>
<text text-anchor="middle" x="1965" y="-164.8" font-family="Times,serif" font-size="14.00" fill="#000000">AppModule</text>
</g>
<!-- AppComponent&#45;&gt;AppModule -->
<g id="edge1" class="edge">
<title>AppComponent&#45;&gt;AppModule</title>
<path fill="none" stroke="#000000" d="M3620,-122.1532C3620,-145.7566 3620,-184 3620,-184 3620,-184 2016.7381,-184 2016.7381,-184"/>
<polygon fill="#000000" stroke="#000000" points="2016.7381,-180.5001 2006.7381,-184 2016.738,-187.5001 2016.7381,-180.5001"/>
</g>
<!-- ItemTypeComponent -->
<g id="node2" class="node">
<title>ItemTypeComponent</title>
<polygon fill="#ffffb3" stroke="#000000" points="3548.7562,-122 3413.2438,-122 3413.2438,-86 3548.7562,-86 3548.7562,-122"/>
<text text-anchor="middle" x="3481" y="-99.8" font-family="Times,serif" font-size="14.00" fill="#000000">ItemTypeComponent</text>
</g>
<!-- ItemTypeComponent&#45;&gt;AppModule -->
<g id="edge2" class="edge">
<title>ItemTypeComponent&#45;&gt;AppModule</title>
<path fill="none" stroke="#000000" d="M3481,-122.2479C3481,-145.0179 3481,-181 3481,-181 3481,-181 2016.7313,-181 2016.7313,-181"/>
<polygon fill="#000000" stroke="#000000" points="2016.7313,-177.5001 2006.7313,-181 2016.7313,-184.5001 2016.7313,-177.5001"/>
</g>
<!-- ItemCategoryComponent -->
<g id="node3" class="node">
<title>ItemCategoryComponent</title>
<polygon fill="#ffffb3" stroke="#000000" points="3395.3061,-122 3236.6939,-122 3236.6939,-86 3395.3061,-86 3395.3061,-122"/>
<text text-anchor="middle" x="3316" y="-99.8" font-family="Times,serif" font-size="14.00" fill="#000000">ItemCategoryComponent</text>
</g>
<!-- ItemCategoryComponent&#45;&gt;AppModule -->
<g id="edge3" class="edge">
<title>ItemCategoryComponent&#45;&gt;AppModule</title>
<path fill="none" stroke="#000000" d="M3316,-122.2921C3316,-144.2057 3316,-178 3316,-178 3316,-178 2016.9142,-178 2016.9142,-178"/>
<polygon fill="#000000" stroke="#000000" points="2016.9142,-174.5001 2006.9142,-178 2016.9142,-181.5001 2016.9142,-174.5001"/>
</g>
<!-- OrderComponent -->
<g id="node4" class="node">
<title>OrderComponent</title>
<polygon fill="#ffffb3" stroke="#000000" points="3218.9748,-122 3105.0252,-122 3105.0252,-86 3218.9748,-86 3218.9748,-122"/>
<text text-anchor="middle" x="3162" y="-99.8" font-family="Times,serif" font-size="14.00" fill="#000000">OrderComponent</text>
</g>
<!-- OrderComponent&#45;&gt;AppModule -->
<g id="edge4" class="edge">
<title>OrderComponent&#45;&gt;AppModule</title>
<path fill="none" stroke="#000000" d="M3162,-122.2843C3162,-143.3211 3162,-175 3162,-175 3162,-175 2016.9,-175 2016.9,-175"/>
<polygon fill="#000000" stroke="#000000" points="2016.9,-171.5001 2006.9,-175 2016.9,-178.5001 2016.9,-171.5001"/>
</g>
<!-- PizzaComponent -->
<g id="node5" class="node">
<title>PizzaComponent</title>
<polygon fill="#ffffb3" stroke="#000000" points="3086.6499,-122 2975.3501,-122 2975.3501,-86 3086.6499,-86 3086.6499,-122"/>
<text text-anchor="middle" x="3031" y="-99.8" font-family="Times,serif" font-size="14.00" fill="#000000">PizzaComponent</text>
</g>
<!-- PizzaComponent&#45;&gt;AppModule -->
<g id="edge5" class="edge">
<title>PizzaComponent&#45;&gt;AppModule</title>
<path fill="none" stroke="#000000" d="M3031,-122.2228C3031,-142.3652 3031,-172 3031,-172 3031,-172 2016.7885,-172 2016.7885,-172"/>
<polygon fill="#000000" stroke="#000000" points="2016.7885,-168.5001 2006.7885,-172 2016.7884,-175.5001 2016.7885,-168.5001"/>
</g>
<!-- PageNotFoundComponent -->
<g id="node6" class="node">
<title>PageNotFoundComponent</title>
<polygon fill="#ffffb3" stroke="#000000" points="2957.8243,-122 2792.1757,-122 2792.1757,-86 2957.8243,-86 2957.8243,-122"/>
<text text-anchor="middle" x="2875" y="-99.8" font-family="Times,serif" font-size="14.00" fill="#000000">PageNotFoundComponent</text>
</g>
<!-- PageNotFoundComponent&#45;&gt;AppModule -->
<g id="edge6" class="edge">
<title>PageNotFoundComponent&#45;&gt;AppModule</title>
<path fill="none" stroke="#000000" d="M2875,-122.1061C2875,-141.3391 2875,-169 2875,-169 2875,-169 2016.7653,-169 2016.7653,-169"/>
<polygon fill="#000000" stroke="#000000" points="2016.7653,-165.5001 2006.7653,-169 2016.7653,-172.5001 2016.7653,-165.5001"/>
</g>
<!-- HomeComponent -->
<g id="node7" class="node">
<title>HomeComponent</title>
<polygon fill="#ffffb3" stroke="#000000" points="2774.5451,-122 2659.4549,-122 2659.4549,-86 2774.5451,-86 2774.5451,-122"/>
<text text-anchor="middle" x="2717" y="-99.8" font-family="Times,serif" font-size="14.00" fill="#000000">HomeComponent</text>
</g>
<!-- HomeComponent&#45;&gt;AppModule -->
<g id="edge7" class="edge">
<title>HomeComponent&#45;&gt;AppModule</title>
<path fill="none" stroke="#000000" d="M2717,-122.2667C2717,-140.5552 2717,-166 2717,-166 2717,-166 2016.7717,-166 2016.7717,-166"/>
<polygon fill="#000000" stroke="#000000" points="2016.7717,-162.5001 2006.7717,-166 2016.7716,-169.5001 2016.7717,-162.5001"/>
</g>
<!-- LoginComponent -->
<g id="node8" class="node">
<title>LoginComponent</title>
<polygon fill="#ffffb3" stroke="#000000" points="2641.2758,-122 2526.7242,-122 2526.7242,-86 2641.2758,-86 2641.2758,-122"/>
<text text-anchor="middle" x="2584" y="-99.8" font-family="Times,serif" font-size="14.00" fill="#000000">LoginComponent</text>
</g>
<!-- LoginComponent&#45;&gt;AppModule -->
<g id="edge8" class="edge">
<title>LoginComponent&#45;&gt;AppModule</title>
<path fill="none" stroke="#000000" d="M2584,-122.0225C2584,-139.3734 2584,-163 2584,-163 2584,-163 2017.0597,-163 2017.0597,-163"/>
<polygon fill="#000000" stroke="#000000" points="2017.0598,-159.5001 2007.0597,-163 2017.0597,-166.5001 2017.0598,-159.5001"/>
</g>
<!-- SignUpComponent -->
<g id="node9" class="node">
<title>SignUpComponent</title>
<polygon fill="#ffffb3" stroke="#000000" points="2509.1123,-122 2384.8877,-122 2384.8877,-86 2509.1123,-86 2509.1123,-122"/>
<text text-anchor="middle" x="2447" y="-99.8" font-family="Times,serif" font-size="14.00" fill="#000000">SignUpComponent</text>
</g>
<!-- SignUpComponent&#45;&gt;AppModule -->
<g id="edge9" class="edge">
<title>SignUpComponent&#45;&gt;AppModule</title>
<path fill="none" stroke="#000000" d="M2447,-122.027C2447,-138.3976 2447,-160 2447,-160 2447,-160 2016.9312,-160 2016.9312,-160"/>
<polygon fill="#000000" stroke="#000000" points="2016.9312,-156.5001 2006.9312,-160 2016.9311,-163.5001 2016.9312,-156.5001"/>
</g>
<!-- MyAccountComponent -->
<g id="node10" class="node">
<title>MyAccountComponent</title>
<polygon fill="#ffffb3" stroke="#000000" points="2367.2035,-122 2218.7965,-122 2218.7965,-86 2367.2035,-86 2367.2035,-122"/>
<text text-anchor="middle" x="2293" y="-99.8" font-family="Times,serif" font-size="14.00" fill="#000000">MyAccountComponent</text>
</g>
<!-- MyAccountComponent&#45;&gt;AppModule -->
<g id="edge10" class="edge">
<title>MyAccountComponent&#45;&gt;AppModule</title>
<path fill="none" stroke="#000000" d="M2293,-122.2396C2293,-137.5706 2293,-157 2293,-157 2293,-157 2016.8746,-157 2016.8746,-157"/>
<polygon fill="#000000" stroke="#000000" points="2016.8746,-153.5001 2006.8746,-157 2016.8746,-160.5001 2016.8746,-153.5001"/>
</g>
<!-- PastOrdersComponent -->
<g id="node11" class="node">
<title>PastOrdersComponent</title>
<polygon fill="#ffffb3" stroke="#000000" points="2201.252,-122 2058.748,-122 2058.748,-86 2201.252,-86 2201.252,-122"/>
<text text-anchor="middle" x="2130" y="-99.8" font-family="Times,serif" font-size="14.00" fill="#000000">PastOrdersComponent</text>
</g>
<!-- PastOrdersComponent&#45;&gt;AppModule -->
<g id="edge11" class="edge">
<title>PastOrdersComponent&#45;&gt;AppModule</title>
<path fill="none" stroke="#000000" d="M2130,-122.0511C2130,-136.373 2130,-154 2130,-154 2130,-154 2017.0634,-154 2017.0634,-154"/>
<polygon fill="#000000" stroke="#000000" points="2017.0634,-150.5001 2007.0634,-154 2017.0634,-157.5001 2017.0634,-150.5001"/>
</g>
<!-- AccountInfoComponent -->
<g id="node12" class="node">
<title>AccountInfoComponent</title>
<polygon fill="#ffffb3" stroke="#000000" points="2041.08,-122 1888.92,-122 1888.92,-86 2041.08,-86 2041.08,-122"/>
<text text-anchor="middle" x="1965" y="-99.8" font-family="Times,serif" font-size="14.00" fill="#000000">AccountInfoComponent</text>
</g>
<!-- AccountInfoComponent&#45;&gt;AppModule -->
<g id="edge12" class="edge">
<title>AccountInfoComponent&#45;&gt;AppModule</title>
<path fill="none" stroke="#000000" d="M1965,-122.1061C1965,-122.1061 1965,-140.991 1965,-140.991"/>
<polygon fill="#000000" stroke="#000000" points="1961.5001,-140.9909 1965,-150.991 1968.5001,-140.991 1961.5001,-140.9909"/>
</g>
<!-- AdminPanelComponent -->
<g id="node13" class="node">
<title>AdminPanelComponent</title>
<polygon fill="#ffffb3" stroke="#000000" points="1870.8229,-122 1719.1771,-122 1719.1771,-86 1870.8229,-86 1870.8229,-122"/>
<text text-anchor="middle" x="1795" y="-99.8" font-family="Times,serif" font-size="14.00" fill="#000000">AdminPanelComponent</text>
</g>
<!-- AdminPanelComponent&#45;&gt;AppModule -->
<g id="edge13" class="edge">
<title>AdminPanelComponent&#45;&gt;AppModule</title>
<path fill="none" stroke="#000000" d="M1795,-122.0511C1795,-136.373 1795,-154 1795,-154 1795,-154 1912.9775,-154 1912.9775,-154"/>
<polygon fill="#000000" stroke="#000000" points="1912.9776,-157.5001 1922.9775,-154 1912.9775,-150.5001 1912.9776,-157.5001"/>
</g>
<!-- ToppingsListComponent -->
<g id="node14" class="node">
<title>ToppingsListComponent</title>
<polygon fill="#ffffb3" stroke="#000000" points="1700.9986,-122 1545.0014,-122 1545.0014,-86 1700.9986,-86 1700.9986,-122"/>
<text text-anchor="middle" x="1623" y="-99.8" font-family="Times,serif" font-size="14.00" fill="#000000">ToppingsListComponent</text>
</g>
<!-- ToppingsListComponent&#45;&gt;AppModule -->
<g id="edge14" class="edge">
<title>ToppingsListComponent&#45;&gt;AppModule</title>
<path fill="none" stroke="#000000" d="M1623,-122.2396C1623,-137.5706 1623,-157 1623,-157 1623,-157 1913.0641,-157 1913.0641,-157"/>
<polygon fill="#000000" stroke="#000000" points="1913.0641,-160.5001 1923.0641,-157 1913.0641,-153.5001 1913.0641,-160.5001"/>
</g>
<!-- AccordionGroupListComponent -->
<g id="node15" class="node">
<title>AccordionGroupListComponent</title>
<polygon fill="#ffffb3" stroke="#000000" points="1526.965,-122 1329.035,-122 1329.035,-86 1526.965,-86 1526.965,-122"/>
<text text-anchor="middle" x="1428" y="-99.8" font-family="Times,serif" font-size="14.00" fill="#000000">AccordionGroupListComponent</text>
</g>
<!-- AccordionGroupListComponent&#45;&gt;AppModule -->
<g id="edge15" class="edge">
<title>AccordionGroupListComponent&#45;&gt;AppModule</title>
<path fill="none" stroke="#000000" d="M1428,-122.027C1428,-138.3976 1428,-160 1428,-160 1428,-160 1913.3094,-160 1913.3094,-160"/>
<polygon fill="#000000" stroke="#000000" points="1913.3094,-163.5001 1923.3094,-160 1913.3093,-156.5001 1913.3094,-163.5001"/>
</g>
<!-- LogoutComponent -->
<g id="node16" class="node">
<title>LogoutComponent</title>
<polygon fill="#ffffb3" stroke="#000000" points="1310.7758,-122 1189.2242,-122 1189.2242,-86 1310.7758,-86 1310.7758,-122"/>
<text text-anchor="middle" x="1250" y="-99.8" font-family="Times,serif" font-size="14.00" fill="#000000">LogoutComponent</text>
</g>
<!-- LogoutComponent&#45;&gt;AppModule -->
<g id="edge16" class="edge">
<title>LogoutComponent&#45;&gt;AppModule</title>
<path fill="none" stroke="#000000" d="M1250,-122.0225C1250,-139.3734 1250,-163 1250,-163 1250,-163 1913.2058,-163 1913.2058,-163"/>
<polygon fill="#000000" stroke="#000000" points="1913.2059,-166.5001 1923.2058,-163 1913.2058,-159.5001 1913.2059,-166.5001"/>
</g>
<!-- EditToppingComponent -->
<g id="node17" class="node">
<title>EditToppingComponent</title>
<polygon fill="#ffffb3" stroke="#000000" points="1171.1094,-122 1018.8906,-122 1018.8906,-86 1171.1094,-86 1171.1094,-122"/>
<text text-anchor="middle" x="1095" y="-99.8" font-family="Times,serif" font-size="14.00" fill="#000000">EditToppingComponent</text>
</g>
<!-- EditToppingComponent&#45;&gt;AppModule -->
<g id="edge17" class="edge">
<title>EditToppingComponent&#45;&gt;AppModule</title>
<path fill="none" stroke="#000000" d="M1095,-122.2667C1095,-140.5552 1095,-166 1095,-166 1095,-166 1913.3312,-166 1913.3312,-166"/>
<polygon fill="#000000" stroke="#000000" points="1913.3312,-169.5001 1923.3312,-166 1913.3312,-162.5001 1913.3312,-169.5001"/>
</g>
<!-- CreateToppingComponent -->
<g id="node18" class="node">
<title>CreateToppingComponent</title>
<polygon fill="#ffffb3" stroke="#000000" points="1000.8075,-122 835.1925,-122 835.1925,-86 1000.8075,-86 1000.8075,-122"/>
<text text-anchor="middle" x="918" y="-99.8" font-family="Times,serif" font-size="14.00" fill="#000000">CreateToppingComponent</text>
</g>
<!-- CreateToppingComponent&#45;&gt;AppModule -->
<g id="edge18" class="edge">
<title>CreateToppingComponent&#45;&gt;AppModule</title>
<path fill="none" stroke="#000000" d="M918,-122.1061C918,-141.3391 918,-169 918,-169 918,-169 1913.3103,-169 1913.3103,-169"/>
<polygon fill="#000000" stroke="#000000" points="1913.3103,-172.5001 1923.3103,-169 1913.3102,-165.5001 1913.3103,-172.5001"/>
</g>
<!-- ToppingCatListComponent -->
<g id="node19" class="node">
<title>ToppingCatListComponent</title>
<polygon fill="#ffffb3" stroke="#000000" points="816.9958,-122 647.0042,-122 647.0042,-86 816.9958,-86 816.9958,-122"/>
<text text-anchor="middle" x="732" y="-99.8" font-family="Times,serif" font-size="14.00" fill="#000000">ToppingCatListComponent</text>
</g>
<!-- ToppingCatListComponent&#45;&gt;AppModule -->
<g id="edge19" class="edge">
<title>ToppingCatListComponent&#45;&gt;AppModule</title>
<path fill="none" stroke="#000000" d="M732,-122.2228C732,-142.3652 732,-172 732,-172 732,-172 1913.2694,-172 1913.2694,-172"/>
<polygon fill="#000000" stroke="#000000" points="1913.2694,-175.5001 1923.2694,-172 1913.2693,-168.5001 1913.2694,-175.5001"/>
</g>
<!-- EditToppingCatComponent -->
<g id="node20" class="node">
<title>EditToppingCatComponent</title>
<polygon fill="#ffffb3" stroke="#000000" points="628.5518,-122 457.4482,-122 457.4482,-86 628.5518,-86 628.5518,-122"/>
<text text-anchor="middle" x="543" y="-99.8" font-family="Times,serif" font-size="14.00" fill="#000000">EditToppingCatComponent</text>
</g>
<!-- EditToppingCatComponent&#45;&gt;AppModule -->
<g id="edge20" class="edge">
<title>EditToppingCatComponent&#45;&gt;AppModule</title>
<path fill="none" stroke="#000000" d="M543,-122.2843C543,-143.3211 543,-175 543,-175 543,-175 1913.2123,-175 1913.2123,-175"/>
<polygon fill="#000000" stroke="#000000" points="1913.2124,-178.5001 1923.2123,-175 1913.2123,-171.5001 1913.2124,-178.5001"/>
</g>
<!-- CreateToppingCatComponent -->
<g id="node21" class="node">
<title>CreateToppingCatComponent</title>
<polygon fill="#ffffb3" stroke="#000000" points="439.2492,-122 254.7508,-122 254.7508,-86 439.2492,-86 439.2492,-122"/>
<text text-anchor="middle" x="347" y="-99.8" font-family="Times,serif" font-size="14.00" fill="#000000">CreateToppingCatComponent</text>
</g>
<!-- CreateToppingCatComponent&#45;&gt;AppModule -->
<g id="edge21" class="edge">
<title>CreateToppingCatComponent&#45;&gt;AppModule</title>
<path fill="none" stroke="#000000" d="M347,-122.2921C347,-144.2057 347,-178 347,-178 347,-178 1912.9671,-178 1912.9671,-178"/>
<polygon fill="#000000" stroke="#000000" points="1912.9672,-181.5001 1922.9671,-178 1912.9671,-174.5001 1912.9672,-181.5001"/>
</g>
<!-- EditPizzaComponent -->
<g id="node22" class="node">
<title>EditPizzaComponent</title>
<polygon fill="#ffffb3" stroke="#000000" points="236.4832,-122 101.5168,-122 101.5168,-86 236.4832,-86 236.4832,-122"/>
<text text-anchor="middle" x="169" y="-99.8" font-family="Times,serif" font-size="14.00" fill="#000000">EditPizzaComponent</text>
</g>
<!-- EditPizzaComponent&#45;&gt;AppModule -->
<g id="edge22" class="edge">
<title>EditPizzaComponent&#45;&gt;AppModule</title>
<path fill="none" stroke="#000000" d="M169,-122.2479C169,-145.0179 169,-181 169,-181 169,-181 1913.2488,-181 1913.2488,-181"/>
<polygon fill="#000000" stroke="#000000" points="1913.2489,-184.5001 1923.2488,-181 1913.2488,-177.5001 1913.2489,-184.5001"/>
</g>
<!-- AppComponent  -->
<g id="node25" class="node">
<title>AppComponent </title>
<polygon fill="#80b1d3" stroke="#000000" points="2019.439,-252 1910.561,-252 1910.561,-216 2019.439,-216 2019.439,-252"/>
<text text-anchor="middle" x="1965" y="-229.8" font-family="Times,serif" font-size="14.00" fill="#000000">AppComponent </text>
</g>
<!-- AppModule&#45;&gt;AppComponent  -->
<g id="edge24" class="edge">
<title>AppModule&#45;&gt;AppComponent </title>
<path fill="none" stroke="#000000" stroke-dasharray="1,5" d="M1965,-187.1061C1965,-187.1061 1965,-205.991 1965,-205.991"/>
<polygon fill="#000000" stroke="#000000" points="1961.5001,-205.9909 1965,-215.991 1968.5001,-205.991 1961.5001,-205.9909"/>
</g>
<!-- routes -->
<g id="node24" class="node">
<title>routes</title>
<polygon fill="#8dd3c7" stroke="#000000" points="78,-122 75,-126 54,-126 51,-122 24,-122 24,-86 78,-86 78,-122"/>
<text text-anchor="middle" x="51" y="-99.8" font-family="Times,serif" font-size="14.00" fill="#000000">routes</text>
</g>
<!-- routes&#45;&gt;AppModule -->
<g id="edge23" class="edge">
<title>routes&#45;&gt;AppModule</title>
<path fill="none" stroke="#000000" d="M51,-122.1532C51,-145.7566 51,-184 51,-184 51,-184 1913.2434,-184 1913.2434,-184"/>
<polygon fill="#000000" stroke="#000000" points="1913.2434,-187.5001 1923.2434,-184 1913.2433,-180.5001 1913.2434,-187.5001"/>
</g>
</g>
</svg>
