<?xml version="1.0" encoding="UTF-8" standalone="no"?>
<!DOCTYPE svg PUBLIC "-//W3C//DTD SVG 1.1//EN"
 "http://www.w3.org/Graphics/SVG/1.1/DTD/svg11.dtd">
<!-- Generated by graphviz version 2.40.1 (20161225.0304)
 -->
<!-- Title: dependencies Pages: 1 -->
<svg width="3848pt" height="284pt"
 viewBox="0.00 0.00 3848.00 284.00" xmlns="http://www.w3.org/2000/svg" xmlns:xlink="http://www.w3.org/1999/xlink">
<g id="graph0" class="graph" transform="scale(1 1) rotate(0) translate(4 280)">
<title>dependencies</title>
<polygon fill="#ffffff" stroke="transparent" points="-4,4 -4,-280 3844,-280 3844,4 -4,4"/>
<text text-anchor="start" x="1899.0091" y="-42.4" font-family="sans-serif" font-weight="bold" font-size="14.00" fill="#000000">Legend</text>
<polygon fill="#ffffb3" stroke="transparent" points="1686,-10 1686,-30 1706,-30 1706,-10 1686,-10"/>
<text text-anchor="start" x="1709.629" y="-15.4" font-family="sans-serif" font-size="14.00" fill="#000000"> &#160;Declarations</text>
<polygon fill="#8dd3c7" stroke="transparent" points="1799,-10 1799,-30 1819,-30 1819,-10 1799,-10"/>
<text text-anchor="start" x="1822.7251" y="-15.4" font-family="sans-serif" font-size="14.00" fill="#000000"> &#160;Module</text>
<polygon fill="#80b1d3" stroke="transparent" points="1885,-10 1885,-30 1905,-30 1905,-10 1885,-10"/>
<text text-anchor="start" x="1908.7812" y="-15.4" font-family="sans-serif" font-size="14.00" fill="#000000"> &#160;Bootstrap</text>
<polygon fill="#fdb462" stroke="transparent" points="1982,-10 1982,-30 2002,-30 2002,-10 1982,-10"/>
<text text-anchor="start" x="2005.6732" y="-15.4" font-family="sans-serif" font-size="14.00" fill="#000000"> &#160;Providers</text>
<polygon fill="#fb8072" stroke="transparent" points="2078,-10 2078,-30 2098,-30 2098,-10 2078,-10"/>
<text text-anchor="start" x="2101.7258" y="-15.4" font-family="sans-serif" font-size="14.00" fill="#000000"> &#160;Exports</text>
<g id="clust1" class="cluster">
<title>cluster_AppModule</title>
<polygon fill="none" stroke="#000000" stroke-dasharray="1,5" points="8,-70 8,-268 3832,-268 3832,-70 8,-70"/>
</g>
<g id="clust2" class="cluster">
<title>cluster_AppModule_declarations</title>
<polygon fill="none" stroke="#000000" points="94,-78 94,-130 3824,-130 3824,-78 94,-78"/>
</g>
<g id="clust26" class="cluster">
<title>cluster_AppModule_imports</title>
<polygon fill="none" stroke="#000000" points="16,-78 16,-130 86,-130 86,-78 16,-78"/>
</g>
<g id="clust28" class="cluster">
<title>cluster_AppModule_bootstrap</title>
<polygon fill="none" stroke="#000000" points="1961,-208 1961,-260 2085,-260 2085,-208 1961,-208"/>
</g>
<!-- AppComponent -->
<g id="node1" class="node">
<title>AppComponent</title>
<polygon fill="#ffffb3" stroke="#000000" points="3815.9399,-122 3710.0601,-122 3710.0601,-86 3815.9399,-86 3815.9399,-122"/>
<text text-anchor="middle" x="3763" y="-99.8" font-family="Times,serif" font-size="14.00" fill="#000000">AppComponent</text>
</g>
<!-- AppModule -->
<g id="node24" class="node">
<title>AppModule</title>
<polygon fill="#8dd3c7" stroke="#000000" points="2064.6571,-187 2061.6571,-191 2040.6571,-191 2037.6571,-187 1981.3429,-187 1981.3429,-151 2064.6571,-151 2064.6571,-187"/>
<text text-anchor="middle" x="2023" y="-164.8" font-family="Times,serif" font-size="14.00" fill="#000000">AppModule</text>
</g>
<!-- AppComponent&#45;&gt;AppModule -->
<g id="edge1" class="edge">
<title>AppComponent&#45;&gt;AppModule</title>
<path fill="none" stroke="#000000" d="M3763,-122.1532C3763,-145.7566 3763,-184 3763,-184 3763,-184 2074.7213,-184 2074.7213,-184"/>
<polygon fill="#000000" stroke="#000000" points="2074.7213,-180.5001 2064.7213,-184 2074.7212,-187.5001 2074.7213,-180.5001"/>
</g>
<!-- ItemTypeComponent -->
<g id="node2" class="node">
<title>ItemTypeComponent</title>
<polygon fill="#ffffb3" stroke="#000000" points="3691.7562,-122 3556.2438,-122 3556.2438,-86 3691.7562,-86 3691.7562,-122"/>
<text text-anchor="middle" x="3624" y="-99.8" font-family="Times,serif" font-size="14.00" fill="#000000">ItemTypeComponent</text>
</g>
<!-- ItemTypeComponent&#45;&gt;AppModule -->
<g id="edge2" class="edge">
<title>ItemTypeComponent&#45;&gt;AppModule</title>
<path fill="none" stroke="#000000" d="M3624,-122.2479C3624,-145.0179 3624,-181 3624,-181 3624,-181 2074.9999,-181 2074.9999,-181"/>
<polygon fill="#000000" stroke="#000000" points="2075,-177.5001 2064.9999,-181 2074.9999,-184.5001 2075,-177.5001"/>
</g>
<!-- ItemCategoryComponent -->
<g id="node3" class="node">
<title>ItemCategoryComponent</title>
<polygon fill="#ffffb3" stroke="#000000" points="3538.3061,-122 3379.6939,-122 3379.6939,-86 3538.3061,-86 3538.3061,-122"/>
<text text-anchor="middle" x="3459" y="-99.8" font-family="Times,serif" font-size="14.00" fill="#000000">ItemCategoryComponent</text>
</g>
<!-- ItemCategoryComponent&#45;&gt;AppModule -->
<g id="edge3" class="edge">
<title>ItemCategoryComponent&#45;&gt;AppModule</title>
<path fill="none" stroke="#000000" d="M3459,-122.2921C3459,-144.2057 3459,-178 3459,-178 3459,-178 2074.8127,-178 2074.8127,-178"/>
<polygon fill="#000000" stroke="#000000" points="2074.8128,-174.5001 2064.8127,-178 2074.8127,-181.5001 2074.8128,-174.5001"/>
</g>
<!-- OrderComponent -->
<g id="node4" class="node">
<title>OrderComponent</title>
<polygon fill="#ffffb3" stroke="#000000" points="3361.9748,-122 3248.0252,-122 3248.0252,-86 3361.9748,-86 3361.9748,-122"/>
<text text-anchor="middle" x="3305" y="-99.8" font-family="Times,serif" font-size="14.00" fill="#000000">OrderComponent</text>
</g>
<!-- OrderComponent&#45;&gt;AppModule -->
<g id="edge4" class="edge">
<title>OrderComponent&#45;&gt;AppModule</title>
<path fill="none" stroke="#000000" d="M3305,-122.2843C3305,-143.3211 3305,-175 3305,-175 3305,-175 2074.9256,-175 2074.9256,-175"/>
<polygon fill="#000000" stroke="#000000" points="2074.9256,-171.5001 2064.9256,-175 2074.9255,-178.5001 2074.9256,-171.5001"/>
</g>
<!-- PizzaComponent -->
<g id="node5" class="node">
<title>PizzaComponent</title>
<polygon fill="#ffffb3" stroke="#000000" points="3229.6499,-122 3118.3501,-122 3118.3501,-86 3229.6499,-86 3229.6499,-122"/>
<text text-anchor="middle" x="3174" y="-99.8" font-family="Times,serif" font-size="14.00" fill="#000000">PizzaComponent</text>
</g>
<!-- PizzaComponent&#45;&gt;AppModule -->
<g id="edge5" class="edge">
<title>PizzaComponent&#45;&gt;AppModule</title>
<path fill="none" stroke="#000000" d="M3174,-122.2228C3174,-142.3652 3174,-172 3174,-172 3174,-172 2074.9866,-172 2074.9866,-172"/>
<polygon fill="#000000" stroke="#000000" points="2074.9866,-168.5001 2064.9866,-172 2074.9865,-175.5001 2074.9866,-168.5001"/>
</g>
<!-- PageNotFoundComponent -->
<g id="node6" class="node">
<title>PageNotFoundComponent</title>
<polygon fill="#ffffb3" stroke="#000000" points="3100.8243,-122 2935.1757,-122 2935.1757,-86 3100.8243,-86 3100.8243,-122"/>
<text text-anchor="middle" x="3018" y="-99.8" font-family="Times,serif" font-size="14.00" fill="#000000">PageNotFoundComponent</text>
</g>
<!-- PageNotFoundComponent&#45;&gt;AppModule -->
<g id="edge6" class="edge">
<title>PageNotFoundComponent&#45;&gt;AppModule</title>
<path fill="none" stroke="#000000" d="M3018,-122.1061C3018,-141.3391 3018,-169 3018,-169 3018,-169 2074.8022,-169 2074.8022,-169"/>
<polygon fill="#000000" stroke="#000000" points="2074.8023,-165.5001 2064.8022,-169 2074.8022,-172.5001 2074.8023,-165.5001"/>
</g>
<!-- HomeComponent -->
<g id="node7" class="node">
<title>HomeComponent</title>
<polygon fill="#ffffb3" stroke="#000000" points="2917.5451,-122 2802.4549,-122 2802.4549,-86 2917.5451,-86 2917.5451,-122"/>
<text text-anchor="middle" x="2860" y="-99.8" font-family="Times,serif" font-size="14.00" fill="#000000">HomeComponent</text>
</g>
<!-- HomeComponent&#45;&gt;AppModule -->
<g id="edge7" class="edge">
<title>HomeComponent&#45;&gt;AppModule</title>
<path fill="none" stroke="#000000" d="M2860,-122.2667C2860,-140.5552 2860,-166 2860,-166 2860,-166 2074.7933,-166 2074.7933,-166"/>
<polygon fill="#000000" stroke="#000000" points="2074.7934,-162.5001 2064.7933,-166 2074.7933,-169.5001 2074.7934,-162.5001"/>
</g>
<!-- LoginComponent -->
<g id="node8" class="node">
<title>LoginComponent</title>
<polygon fill="#ffffb3" stroke="#000000" points="2784.2758,-122 2669.7242,-122 2669.7242,-86 2784.2758,-86 2784.2758,-122"/>
<text text-anchor="middle" x="2727" y="-99.8" font-family="Times,serif" font-size="14.00" fill="#000000">LoginComponent</text>
</g>
<!-- LoginComponent&#45;&gt;AppModule -->
<g id="edge8" class="edge">
<title>LoginComponent&#45;&gt;AppModule</title>
<path fill="none" stroke="#000000" d="M2727,-122.0225C2727,-139.3734 2727,-163 2727,-163 2727,-163 2074.6698,-163 2074.6698,-163"/>
<polygon fill="#000000" stroke="#000000" points="2074.6698,-159.5001 2064.6698,-163 2074.6697,-166.5001 2074.6698,-159.5001"/>
</g>
<!-- SignUpComponent -->
<g id="node9" class="node">
<title>SignUpComponent</title>
<polygon fill="#ffffb3" stroke="#000000" points="2652.1123,-122 2527.8877,-122 2527.8877,-86 2652.1123,-86 2652.1123,-122"/>
<text text-anchor="middle" x="2590" y="-99.8" font-family="Times,serif" font-size="14.00" fill="#000000">SignUpComponent</text>
</g>
<!-- SignUpComponent&#45;&gt;AppModule -->
<g id="edge9" class="edge">
<title>SignUpComponent&#45;&gt;AppModule</title>
<path fill="none" stroke="#000000" d="M2590,-122.027C2590,-138.3976 2590,-160 2590,-160 2590,-160 2074.6929,-160 2074.6929,-160"/>
<polygon fill="#000000" stroke="#000000" points="2074.6929,-156.5001 2064.6929,-160 2074.6928,-163.5001 2074.6929,-156.5001"/>
</g>
<!-- MyAccountComponent -->
<g id="node10" class="node">
<title>MyAccountComponent</title>
<polygon fill="#ffffb3" stroke="#000000" points="2510.2035,-122 2361.7965,-122 2361.7965,-86 2510.2035,-86 2510.2035,-122"/>
<text text-anchor="middle" x="2436" y="-99.8" font-family="Times,serif" font-size="14.00" fill="#000000">MyAccountComponent</text>
</g>
<!-- MyAccountComponent&#45;&gt;AppModule -->
<g id="edge10" class="edge">
<title>MyAccountComponent&#45;&gt;AppModule</title>
<path fill="none" stroke="#000000" d="M2436,-122.2396C2436,-137.5706 2436,-157 2436,-157 2436,-157 2074.8735,-157 2074.8735,-157"/>
<polygon fill="#000000" stroke="#000000" points="2074.8735,-153.5001 2064.8735,-157 2074.8734,-160.5001 2074.8735,-153.5001"/>
</g>
<!-- PastOrdersComponent -->
<g id="node11" class="node">
<title>PastOrdersComponent</title>
<polygon fill="#ffffb3" stroke="#000000" points="2344.252,-122 2201.748,-122 2201.748,-86 2344.252,-86 2344.252,-122"/>
<text text-anchor="middle" x="2273" y="-99.8" font-family="Times,serif" font-size="14.00" fill="#000000">PastOrdersComponent</text>
</g>
<!-- PastOrdersComponent&#45;&gt;AppModule -->
<g id="edge11" class="edge">
<title>PastOrdersComponent&#45;&gt;AppModule</title>
<path fill="none" stroke="#000000" d="M2273,-122.0511C2273,-136.373 2273,-154 2273,-154 2273,-154 2074.8444,-154 2074.8444,-154"/>
<polygon fill="#000000" stroke="#000000" points="2074.8444,-150.5001 2064.8444,-154 2074.8443,-157.5001 2074.8444,-150.5001"/>
</g>
<!-- AccountInfoComponent -->
<g id="node12" class="node">
<title>AccountInfoComponent</title>
<polygon fill="#ffffb3" stroke="#000000" points="2184.08,-122 2031.92,-122 2031.92,-86 2184.08,-86 2184.08,-122"/>
<text text-anchor="middle" x="2108" y="-99.8" font-family="Times,serif" font-size="14.00" fill="#000000">AccountInfoComponent</text>
</g>
<!-- AccountInfoComponent&#45;&gt;AppModule -->
<g id="edge12" class="edge">
<title>AccountInfoComponent&#45;&gt;AppModule</title>
<path fill="none" stroke="#000000" d="M2048.3941,-122.1061C2048.3941,-122.1061 2048.3941,-140.991 2048.3941,-140.991"/>
<polygon fill="#000000" stroke="#000000" points="2044.8942,-140.9909 2048.3941,-150.991 2051.8942,-140.991 2044.8942,-140.9909"/>
</g>
<!-- AdminPanelComponent -->
<g id="node13" class="node">
<title>AdminPanelComponent</title>
<polygon fill="#ffffb3" stroke="#000000" points="2013.8229,-122 1862.1771,-122 1862.1771,-86 2013.8229,-86 2013.8229,-122"/>
<text text-anchor="middle" x="1938" y="-99.8" font-family="Times,serif" font-size="14.00" fill="#000000">AdminPanelComponent</text>
</g>
<!-- AdminPanelComponent&#45;&gt;AppModule -->
<g id="edge13" class="edge">
<title>AdminPanelComponent&#45;&gt;AppModule</title>
<path fill="none" stroke="#000000" d="M1997.4166,-122.1061C1997.4166,-122.1061 1997.4166,-140.991 1997.4166,-140.991"/>
<polygon fill="#000000" stroke="#000000" points="1993.9166,-140.9909 1997.4166,-150.991 2000.9166,-140.991 1993.9166,-140.9909"/>
</g>
<!-- ToppingsListComponent -->
<g id="node14" class="node">
<title>ToppingsListComponent</title>
<polygon fill="#ffffb3" stroke="#000000" points="1843.9986,-122 1688.0014,-122 1688.0014,-86 1843.9986,-86 1843.9986,-122"/>
<text text-anchor="middle" x="1766" y="-99.8" font-family="Times,serif" font-size="14.00" fill="#000000">ToppingsListComponent</text>
</g>
<!-- ToppingsListComponent&#45;&gt;AppModule -->
<g id="edge14" class="edge">
<title>ToppingsListComponent&#45;&gt;AppModule</title>
<path fill="none" stroke="#000000" d="M1766,-122.0511C1766,-136.373 1766,-154 1766,-154 1766,-154 1971.1365,-154 1971.1365,-154"/>
<polygon fill="#000000" stroke="#000000" points="1971.1366,-157.5001 1981.1365,-154 1971.1365,-150.5001 1971.1366,-157.5001"/>
</g>
<!-- AccordionGroupListComponent -->
<g id="node15" class="node">
<title>AccordionGroupListComponent</title>
<polygon fill="#ffffb3" stroke="#000000" points="1669.965,-122 1472.035,-122 1472.035,-86 1669.965,-86 1669.965,-122"/>
<text text-anchor="middle" x="1571" y="-99.8" font-family="Times,serif" font-size="14.00" fill="#000000">AccordionGroupListComponent</text>
</g>
<!-- AccordionGroupListComponent&#45;&gt;AppModule -->
<g id="edge15" class="edge">
<title>AccordionGroupListComponent&#45;&gt;AppModule</title>
<path fill="none" stroke="#000000" d="M1571,-122.2396C1571,-137.5706 1571,-157 1571,-157 1571,-157 1971.2871,-157 1971.2871,-157"/>
<polygon fill="#000000" stroke="#000000" points="1971.2871,-160.5001 1981.2871,-157 1971.2871,-153.5001 1971.2871,-160.5001"/>
</g>
<!-- LogoutComponent -->
<g id="node16" class="node">
<title>LogoutComponent</title>
<polygon fill="#ffffb3" stroke="#000000" points="1453.7758,-122 1332.2242,-122 1332.2242,-86 1453.7758,-86 1453.7758,-122"/>
<text text-anchor="middle" x="1393" y="-99.8" font-family="Times,serif" font-size="14.00" fill="#000000">LogoutComponent</text>
</g>
<!-- LogoutComponent&#45;&gt;AppModule -->
<g id="edge16" class="edge">
<title>LogoutComponent&#45;&gt;AppModule</title>
<path fill="none" stroke="#000000" d="M1393,-122.027C1393,-138.3976 1393,-160 1393,-160 1393,-160 1971.176,-160 1971.176,-160"/>
<polygon fill="#000000" stroke="#000000" points="1971.1761,-163.5001 1981.176,-160 1971.176,-156.5001 1971.1761,-163.5001"/>
</g>
<!-- EditToppingComponent -->
<g id="node17" class="node">
<title>EditToppingComponent</title>
<polygon fill="#ffffb3" stroke="#000000" points="1314.1094,-122 1161.8906,-122 1161.8906,-86 1314.1094,-86 1314.1094,-122"/>
<text text-anchor="middle" x="1238" y="-99.8" font-family="Times,serif" font-size="14.00" fill="#000000">EditToppingComponent</text>
</g>
<!-- EditToppingComponent&#45;&gt;AppModule -->
<g id="edge17" class="edge">
<title>EditToppingComponent&#45;&gt;AppModule</title>
<path fill="none" stroke="#000000" d="M1238,-122.0225C1238,-139.3734 1238,-163 1238,-163 1238,-163 1971.0725,-163 1971.0725,-163"/>
<polygon fill="#000000" stroke="#000000" points="1971.0726,-166.5001 1981.0725,-163 1971.0725,-159.5001 1971.0726,-166.5001"/>
</g>
<!-- CreateToppingComponent -->
<g id="node18" class="node">
<title>CreateToppingComponent</title>
<polygon fill="#ffffb3" stroke="#000000" points="1143.8075,-122 978.1925,-122 978.1925,-86 1143.8075,-86 1143.8075,-122"/>
<text text-anchor="middle" x="1061" y="-99.8" font-family="Times,serif" font-size="14.00" fill="#000000">CreateToppingComponent</text>
</g>
<!-- CreateToppingComponent&#45;&gt;AppModule -->
<g id="edge18" class="edge">
<title>CreateToppingComponent&#45;&gt;AppModule</title>
<path fill="none" stroke="#000000" d="M1061,-122.2667C1061,-140.5552 1061,-166 1061,-166 1061,-166 1971.0455,-166 1971.0455,-166"/>
<polygon fill="#000000" stroke="#000000" points="1971.0455,-169.5001 1981.0455,-166 1971.0454,-162.5001 1971.0455,-169.5001"/>
</g>
<!-- ToppingCatListComponent -->
<g id="node19" class="node">
<title>ToppingCatListComponent</title>
<polygon fill="#ffffb3" stroke="#000000" points="959.9958,-122 790.0042,-122 790.0042,-86 959.9958,-86 959.9958,-122"/>
<text text-anchor="middle" x="875" y="-99.8" font-family="Times,serif" font-size="14.00" fill="#000000">ToppingCatListComponent</text>
</g>
<!-- ToppingCatListComponent&#45;&gt;AppModule -->
<g id="edge19" class="edge">
<title>ToppingCatListComponent&#45;&gt;AppModule</title>
<path fill="none" stroke="#000000" d="M875,-122.1061C875,-141.3391 875,-169 875,-169 875,-169 1971.1229,-169 1971.1229,-169"/>
<polygon fill="#000000" stroke="#000000" points="1971.1229,-172.5001 1981.1229,-169 1971.1228,-165.5001 1971.1229,-172.5001"/>
</g>
<!-- EditToppingCatComponent -->
<g id="node20" class="node">
<title>EditToppingCatComponent</title>
<polygon fill="#ffffb3" stroke="#000000" points="771.5518,-122 600.4482,-122 600.4482,-86 771.5518,-86 771.5518,-122"/>
<text text-anchor="middle" x="686" y="-99.8" font-family="Times,serif" font-size="14.00" fill="#000000">EditToppingCatComponent</text>
</g>
<!-- EditToppingCatComponent&#45;&gt;AppModule -->
<g id="edge20" class="edge">
<title>EditToppingCatComponent&#45;&gt;AppModule</title>
<path fill="none" stroke="#000000" d="M686,-122.2228C686,-142.3652 686,-172 686,-172 686,-172 1971.1498,-172 1971.1498,-172"/>
<polygon fill="#000000" stroke="#000000" points="1971.1499,-175.5001 1981.1498,-172 1971.1498,-168.5001 1971.1499,-175.5001"/>
</g>
<!-- CreateToppingCatComponent -->
<g id="node21" class="node">
<title>CreateToppingCatComponent</title>
<polygon fill="#ffffb3" stroke="#000000" points="582.2492,-122 397.7508,-122 397.7508,-86 582.2492,-86 582.2492,-122"/>
<text text-anchor="middle" x="490" y="-99.8" font-family="Times,serif" font-size="14.00" fill="#000000">CreateToppingCatComponent</text>
</g>
<!-- CreateToppingCatComponent&#45;&gt;AppModule -->
<g id="edge21" class="edge">
<title>CreateToppingCatComponent&#45;&gt;AppModule</title>
<path fill="none" stroke="#000000" d="M490,-122.2843C490,-143.3211 490,-175 490,-175 490,-175 1971.2009,-175 1971.2009,-175"/>
<polygon fill="#000000" stroke="#000000" points="1971.2009,-178.5001 1981.2009,-175 1971.2009,-171.5001 1971.2009,-178.5001"/>
</g>
<!-- EditPizzaComponent -->
<g id="node22" class="node">
<title>EditPizzaComponent</title>
<polygon fill="#ffffb3" stroke="#000000" points="379.4832,-122 244.5168,-122 244.5168,-86 379.4832,-86 379.4832,-122"/>
<text text-anchor="middle" x="312" y="-99.8" font-family="Times,serif" font-size="14.00" fill="#000000">EditPizzaComponent</text>
</g>
<!-- EditPizzaComponent&#45;&gt;AppModule -->
<g id="edge22" class="edge">
<title>EditPizzaComponent&#45;&gt;AppModule</title>
<path fill="none" stroke="#000000" d="M312,-122.2921C312,-144.2057 312,-178 312,-178 312,-178 1971.1303,-178 1971.1303,-178"/>
<polygon fill="#000000" stroke="#000000" points="1971.1303,-181.5001 1981.1303,-178 1971.1302,-174.5001 1971.1303,-181.5001"/>
</g>
<!-- ReceiptComponent -->
<g id="node23" class="node">
<title>ReceiptComponent</title>
<polygon fill="#ffffb3" stroke="#000000" points="226.094,-122 101.906,-122 101.906,-86 226.094,-86 226.094,-122"/>
<text text-anchor="middle" x="164" y="-99.8" font-family="Times,serif" font-size="14.00" fill="#000000">ReceiptComponent</text>
</g>
<!-- ReceiptComponent&#45;&gt;AppModule -->
<g id="edge23" class="edge">
<title>ReceiptComponent&#45;&gt;AppModule</title>
<path fill="none" stroke="#000000" d="M164,-122.2479C164,-145.0179 164,-181 164,-181 164,-181 1971.1236,-181 1971.1236,-181"/>
<polygon fill="#000000" stroke="#000000" points="1971.1236,-184.5001 1981.1236,-181 1971.1236,-177.5001 1971.1236,-184.5001"/>
</g>
<!-- AppComponent  -->
<g id="node26" class="node">
<title>AppComponent </title>
<polygon fill="#80b1d3" stroke="#000000" points="2077.439,-252 1968.561,-252 1968.561,-216 2077.439,-216 2077.439,-252"/>
<text text-anchor="middle" x="2023" y="-229.8" font-family="Times,serif" font-size="14.00" fill="#000000">AppComponent </text>
</g>
<!-- AppModule&#45;&gt;AppComponent  -->
<g id="edge25" class="edge">
<title>AppModule&#45;&gt;AppComponent </title>
<path fill="none" stroke="#000000" stroke-dasharray="1,5" d="M2023,-187.1061C2023,-187.1061 2023,-205.991 2023,-205.991"/>
<polygon fill="#000000" stroke="#000000" points="2019.5001,-205.9909 2023,-215.991 2026.5001,-205.991 2019.5001,-205.9909"/>
</g>
<!-- routes -->
<g id="node25" class="node">
<title>routes</title>
<polygon fill="#8dd3c7" stroke="#000000" points="78,-122 75,-126 54,-126 51,-122 24,-122 24,-86 78,-86 78,-122"/>
<text text-anchor="middle" x="51" y="-99.8" font-family="Times,serif" font-size="14.00" fill="#000000">routes</text>
</g>
<!-- routes&#45;&gt;AppModule -->
<g id="edge24" class="edge">
<title>routes&#45;&gt;AppModule</title>
<path fill="none" stroke="#000000" d="M51,-122.1532C51,-145.7566 51,-184 51,-184 51,-184 1970.8997,-184 1970.8997,-184"/>
<polygon fill="#000000" stroke="#000000" points="1970.8997,-187.5001 1980.8997,-184 1970.8996,-180.5001 1970.8997,-187.5001"/>
</g>
</g>
</svg>
